{"title":"War.And.Peace.2016.S01.720p.BluRay.x264-SHORTBREHD Complete Mini","uid":15600022,"size":17742720697,"categoryP":"video","categoryS":"hd___tv_shows","magnet":"?xt=urn:btih:33934a7b4e7a390a98045c9fc392cc520c0f596a&amp;dn=War.And.Peace.2016.S01.720p.BluRay.x264-SHORTBREHD+Complete+Mini&amp;tr=udp%3A%2F%2Ftracker.leechers-paradise.org%3A6969&amp;tr=udp%3A%2F%2Fzer0day.ch%3A1337&amp;tr=udp%3A%2F%2Fopen.demonii.com%3A1337&amp;tr=udp%3A%2F%2Ftracker.coppersurfer.tk%3A6969&amp;tr=udp%3A%2F%2Fexodus.desync.com%3A6969","seeders":4,"leechers":0,"uploader":"GoodFilms","files":20,"time":1471622484,"description":"http://www.imdb.com/title/tt3910804/\r\n\r\nVideo\r\nID                                       : 1\r\nFormat                                   : AVC\r\nFormat/Info                              : Advanced Video Codec\r\nFormat profile                           :   \r\nFormat settings, CABAC                   : Yes\r\nFormat settings, ReFrames                : 5 frames\r\nCodec ID                                 : V_MPEG4/ISO/AVC\r\nDuration                                 : 1h 22mn\r\nBit rate                                 : 4 201 Kbps\r\nWidth                                    : 1 280 pixels\r\nHeight                                   : 720 pixels\r\nDisplay aspect ratio                     : 16:9\r\nFrame rate mode                          : Constant\r\nFrame rate                               : 25.000 fps\r\nColor space                              : YUV\r\nChroma subsampling                       : 4:2:0\r\nBit depth                                : 8 bits\r\nScan type                                : Progressive\r\nBits/(Pixel*Frame)                       : 0.182\r\nStream size                              : 2.35 GiB (72%)\r\nWriting library                          : x264 core 148 r2665 a01e339\r\nLanguage                                 : English\r\nDefault                                  : Yes\r\nForced                                   : No\r\nStatistics Tags Issue                    : no_variable_data 1970-01-01 00:00:00 / no_variable_data 2010-02-22 21:41:29\r\nFromStats_BitRate                        : 4200690\r\nFromStats_Duration                       : 01:22:07.720000000\r\nFromStats_FrameCount                     : 123193\r\nFromStats_StreamSize                     : 2587478618\r\n\r\nAudio\r\nID                                       : 2\r\nFormat                                   : DTS\r\nFormat/Info                              : Digital Theater Systems\r\nMode                                     : 16\r\nFormat settings, Endianness              : Big\r\nCodec ID                                 : A_DTS\r\nDuration                                 : 1h 22mn\r\nBit rate mode                            : Constant\r\nBit rate                                 : 1 509 Kbps\r\nChannel(s)                               : 6 channels\r\nChannel positions                        : Front: L C R, Side: L R, LFE\r\nSampling rate                            : 48.0 KHz\r\nFrame rate                               : 93.750 fps (512 spf)\r\nBit depth                                : 24 bits\r\nCompression mode                         : Lossy\r\nStream size                              : 886 MiB (26%)\r\nLanguage                                 : English\r\nDefault                                  : Yes\r\nForced                                   : No\r\nStatistics Tags Issue                    : no_variable_data 1970-01-01 00:00:00 / no_variable_data 2010-02-22 21:41:29\r\nFromStats_BitRate                        : 1508999\r\nFromStats_Duration                       : 01:22:07.766000000\r\nFromStats_FrameCount                     : 461978\r\nFromStats_StreamSize                     : 929499736\r\n\r\nMenu\r\n00:00:00.000                             : en:00:00:00.000\r\n00:09:02.160                             : en:00:09:02.160\r\n00:19:57.840                             : en:00:19:57.840\r\n00:28:58.000                             : en:00:28:58.000\r\n00:38:46.480                             : en:00:38:46.480\r\n00:49:58.720                             : en:00:49:58.720\r\n01:00:21.520                             : en:01:00:21.520\r\n01:10:54.120                             : en:01:10:54.120\r\n\r\nSubs:  https://subscene.com/subtitles/war-and-peace-first-season/english/1273186","torrent":{"xt":"urn:btih:33934a7b4e7a390a98045c9fc392cc520c0f596a","amp;dn":"War.And.Peace.2016.S01.720p.BluRay.x264-SHORTBREHD+Complete+Mini","amp;tr":["udp%3A%2F%2Ftracker.leechers-paradise.org%3A6969","udp%3A%2F%2Fzer0day.ch%3A1337","udp%3A%2F%2Fopen.demonii.com%3A1337","udp%3A%2F%2Ftracker.coppersurfer.tk%3A6969","udp%3A%2F%2Fexodus.desync.com%3A6969"],"infoHash":"33934a7b4e7a390a98045c9fc392cc520c0f596a","infoHashBuffer":{"type":"Buffer","data":[51,147,74,123,78,122,57,10,152,4,92,159,195,146,204,82,12,15,89,106]},"announce":[],"urlList":[]}}